Coordinates
version=1
nRows=11
nColumns=63
inDegrees=yes

Units are S.I. units (second, meters, Newtons, ...)
If the header above contains a line with 'inDegrees', this indicates whether rotational values are in degrees (yes) or radians (no).

endheader
time	pelvis_tilt	pelvis_list	pelvis_rotation	pelvis_tx	pelvis_ty	pelvis_tz	hip_flexion_r	hip_adduction_r	hip_rotation_r	knee_angle_r	knee_angle_r_beta	ankle_angle_r	subtalar_angle_r	mtp_angle_r	hip_flexion_l	hip_adduction_l	hip_rotation_l	knee_angle_l	knee_angle_l_beta	ankle_angle_l	subtalar_angle_l	mtp_angle_l	L5_S1_Flex_Ext	L5_S1_Lat_Bending	L5_S1_axial_rotation	L4_L5_Flex_Ext	L4_L5_Lat_Bending	L4_L5_axial_rotation	L3_L4_Flex_Ext	L3_L4_Lat_Bending	L3_L4_axial_rotation	L2_L3_Flex_Ext	L2_L3_Lat_Bending	L2_L3_axial_rotation	L1_L2_Flex_Ext	L1_L2_Lat_Bending	L1_L2_axial_rotation	L1_T12_Flex_Ext	L1_T12_Lat_Bending	L1_T12_axial_rotation	Abs_r3	Abs_r2	Abs_r1	Abs_t1	Abs_t2	neck_flexion	neck_bending	neck_rotation	arm_flex_r	arm_add_r	arm_rot_r	elbow_flex_r	pro_sup_r	wrist_flex_r	wrist_dev_r	arm_flex_l	arm_add_l	arm_rot_l	elbow_flex_l	pro_sup_l	wrist_flex_l	wrist_dev_l
      5.05084746	     -2.93015065	     -4.01504340	     84.87548708	      0.34439105	      0.98611161	      0.38269517	     -2.33865111	      2.02673725	      9.25892990	      1.27503431	      0.02225355	     24.18761311	    -10.00901204	      0.00000000	      5.54270419	     -1.72633327	     -2.06524456	     15.71869248	      0.27434294	     32.13068286	     -3.46935007	      0.00000000	      0.22773227	     -0.06792134	      1.10380078	      0.42292161	     -0.09033539	      1.17278833	      0.37414135	     -0.16514396	      1.17278833	      0.26027522	     -0.16514396	      0.96582569	      0.21147219	     -0.13850521	      0.89683814	      0.13012622	     -0.10521016	      0.82785059	      1.62666886	     -0.76833983	      6.13900882	      0.00000000	      0.00000000	     27.16835646	      0.45225741	     -9.31302594	      4.60354243	    -13.74837710	     48.50879157	     53.46779487	     88.36899871	     13.64146277	     17.59300875	     17.03205471	    -13.81165767	     76.74998210	     51.00148486	     65.72291322	     -4.46552985	    -13.72269978
      5.06779661	     -2.89528603	     -4.12240773	     85.01894719	      0.34394830	      0.98619444	      0.38208094	     -2.29159091	      2.04870039	      8.91691402	      1.24341297	      0.02170165	     24.18148395	     -9.80251031	      0.00000000	      5.43981351	     -1.77035984	     -2.32896520	     15.44823288	      0.26962253	     31.70183038	     -3.55306596	      0.00000000	      0.23953354	     -0.07488459	      1.18731497	      0.44483773	     -0.09959650	      1.26152216	      0.39352965	     -0.18207439	      1.26152216	      0.27376288	     -0.18207439	      1.03890060	      0.22243084	     -0.15270465	      0.96469341	      0.13686946	     -0.11599623	      0.89048623	      1.71096409	     -0.84710943	      6.60348968	      0.00000000	      0.00000000	     27.23110718	      0.11468767	     -9.93273811	      4.22184178	    -13.66295819	     48.41159095	     53.74719016	     88.30683139	     11.90355576	     16.95329116	     16.59379560	    -13.88482470	     75.77552354	     51.31496719	     64.31197695	     -4.09754973	    -13.30685285
      5.08474576	     -2.88706502	     -4.16431090	     85.10966189	      0.34364689	      0.98635643	      0.38137165	     -2.33543637	      2.03787664	      8.70454543	      1.18122889	      0.02061633	     24.15485965	     -9.75097790	      0.00000000	      5.19016190	     -1.77683081	     -2.62056162	     15.04649066	      0.26261080	     31.16358433	     -3.69918928	      0.00000000	      0.24715092	     -0.08446865	      1.26795216	      0.45898397	     -0.11234331	      1.34719917	      0.40604424	     -0.20537708	      1.34719917	      0.28246878	     -0.20537708	      1.10945814	      0.22950434	     -0.17224847	      1.03021113	      0.14122203	     -0.13084194	      0.95096412	      1.76537428	     -0.95552628	      7.05196952	      0.00000000	      0.00000000	     27.28324357	     -0.14854097	    -10.28133496	      3.87680068	    -13.39276012	     48.18351616	     53.70805580	     88.06284132	     10.69674123	     16.34281523	     16.27053503	    -13.91782730	     74.98093008	     51.49272463	     63.34841795	     -3.74137567	    -12.91709713
      5.10169492	     -2.99340636	     -4.17705025	     84.93036839	      0.34370554	      0.98648520	      0.38104604	     -2.34451887	      1.89834249	      8.59707084	      1.15646182	      0.02018407	     24.15780663	     -9.55127853	      0.00000000	      5.02052731	     -1.68282843	     -3.14617672	     14.84321746	      0.25906302	     30.70436801	     -3.96311531	      0.00000000	      0.24735163	     -0.11228542	      1.41445535	      0.45935672	     -0.14933961	      1.50285880	      0.40637400	     -0.27301077	      1.50285880	      0.28269818	     -0.27301077	      1.23764843	      0.22969073	     -0.22897243	      1.14924497	      0.14133672	     -0.17393012	      1.06084151	      1.76680797	     -1.27019515	      7.86677630	      0.00000000	      0.00000000	     27.29745983	     -0.42804949	    -10.97756307	      3.77459456	    -13.20032744	     48.48396120	     53.54951343	     87.43686676	      9.37244213	     15.38788100	     16.45322515	    -14.02914321	     74.86247178	     51.75089295	     62.05627243	     -2.54443141	    -11.70927236
      5.11864407	     -3.04009266	     -4.15440482	     84.85507730	      0.34361670	      0.98671845	      0.38082938	     -2.39319688	      1.82407104	      8.47145345	      1.12969546	      0.01971691	     24.10986434	     -9.47165429	      0.00000000	      4.83981862	     -1.63274564	     -3.45423173	     14.61553269	      0.25508917	     30.41073548	     -4.00186614	      0.00000000	      0.24229529	     -0.13217034	      1.54674878	      0.44996659	     -0.17578656	      1.64342058	      0.39806694	     -0.32135898	      1.64342058	      0.27691929	     -0.32135898	      1.35340518	      0.22499541	     -0.26952177	      1.25673338	      0.13844753	     -0.20473186	      1.16006158	      1.73069105	     -1.49513737	      8.60255268	      0.00000000	      0.00000000	     27.25479450	     -0.59714388	    -11.35732169	      3.79017446	    -13.01023285	     48.73777467	     53.22354327	     86.70883964	      9.04642574	     14.89501318	     16.97752719	    -13.98811031	     75.45756289	     51.69105234	     61.36080580	     -1.59334455	    -10.87642435
      5.13559322	     -3.09265028	     -4.12850435	     84.66700908	      0.34365794	      0.98688753	      0.38070238	     -2.42128557	      1.73926476	      8.49183861	      1.12267920	      0.01959445	     24.07782224	     -9.36567581	      0.00000000	      4.68365122	     -1.56295834	     -3.59736207	     14.40282144	      0.25137666	     30.33248839	     -3.96779391	      0.00000000	      0.23616386	     -0.15403208	      1.71358976	      0.43857990	     -0.20486267	      1.82068912	      0.38799360	     -0.37451361	      1.82068912	      0.26991167	     -0.37451361	      1.49939104	      0.21930176	     -0.31410223	      1.39229168	      0.13494403	     -0.23859570	      1.28519232	      1.68689481	     -1.74244174	      9.53047219	      0.00000000	      0.00000000	     27.23183854	     -0.72448833	    -11.76416418	      3.84544157	    -12.87939333	     49.02089081	     52.88724889	     85.96979854	      9.06800355	     14.61783284	     17.65037715	    -13.86684255	     76.44699292	     51.49332839	     60.64523610	     -0.54504718	    -10.11512107
      5.15254237	     -3.11483307	     -4.15764504	     84.47155489	      0.34357543	      0.98700651	      0.38068509	     -2.37367801	      1.68133140	      8.10671359	      1.12979185	      0.01971859	     24.22621740	     -8.58545948	      0.00000000	      4.55934414	     -1.48904220	     -3.43458489	     14.06351971	      0.24545472	     30.37823499	     -3.92758868	      0.00000000	      0.23818824	     -0.17293344	      1.88285098	      0.44233938	     -0.23000147	      2.00052916	      0.39131946	     -0.42047035	      2.00052916	      0.27222534	     -0.42047035	      1.64749460	      0.22118160	     -0.35264586	      1.52981642	      0.13610076	     -0.26787389	      1.41213823	      1.70135477	     -1.95625761	     10.47185228	      0.00000000	      0.00000000	     27.22602095	     -1.04067141	    -12.34059137	      3.96707766	    -12.83394252	     49.36418130	     52.58873826	     85.66769330	      9.32054176	     14.44002159	     18.50861215	    -13.63821860	     78.28564438	     51.11862331	     58.90445222	      0.15368616	     -9.94199700
      5.16949153	     -3.12659745	     -4.10686360	     84.60121227	      0.34306440	      0.98717896	      0.38063890	     -2.42349099	      1.63236659	      7.13754477	      1.14744351	      0.02002667	     24.54253899	     -7.29761832	      0.00000000	      4.38759976	     -1.40818017	     -2.99235152	     13.69770024	      0.23906997	     30.56104218	     -3.51202083	      0.00000000	      0.22349547	     -0.19054925	      1.91422753	      0.41505344	     -0.25343051	      2.03386675	      0.36718071	     -0.46330146	      2.03386675	      0.25543297	     -0.46330146	      1.67494909	      0.20753790	     -0.38856804	      1.55530987	      0.12770531	     -0.29516080	      1.43567065	      1.59640581	     -2.15553128	     10.64635924	      0.00000000	      0.00000000	     27.41501128	     -1.12785626	    -12.34702991	      4.52494112	    -12.88109137	     50.55519855	     52.33624941	     84.82688735	      9.28975507	     14.78495465	     18.73241152	    -13.56028025	     78.83770569	     50.91194791	     58.62194085	      0.28047238	     -9.78471269
      5.18644068	     -3.12288390	     -4.23933870	     84.33560019	      0.34278122	      0.98716189	      0.38040527	     -2.29300425	      1.59107678	      7.10020257	      1.10510906	      0.01928779	     24.63091092	     -6.62800742	      0.00000000	      4.28501976	     -1.34143647	     -2.67988397	     13.19703061	      0.23033164	     30.72807179	     -3.37309883	      0.00000000	      0.24762415	     -0.20015682	      2.00041120	      0.45986281	     -0.26620857	      2.12543690	      0.40682171	     -0.48666129	      2.12543690	      0.28300964	     -0.48666129	      1.75035980	      0.22994378	     -0.40815978	      1.62533410	      0.14149244	     -0.31004291	      1.50030840	      1.76875453	     -2.26421395	     11.12568696	      0.00000000	      0.00000000	     27.55006375	     -1.34579983	    -12.29691420	      4.99272575	    -13.03345560	     51.71574976	     52.01654755	     83.93965929	      9.40706568	     14.60892086	     18.81770736	    -13.35797021	     79.45408844	     50.53098117	     58.39932193	      0.39524690	     -9.73112444
      5.20338983	     -3.16091755	     -4.47275864	     83.93862783	      0.34265167	      0.98702472	      0.38024460	     -1.99513085	      1.51894678	      7.07089588	      1.15817294	      0.02021393	     24.81288741	     -5.82617091	      0.00000000	      4.38907018	     -1.24454463	     -2.30729027	     12.92553751	      0.22559319	     30.83958543	     -3.65185241	      0.00000000	      0.28668733	     -0.21264502	      2.07608380	      0.53240705	     -0.28281788	      2.20583904	      0.47099862	     -0.51702511	      2.20583904	      0.32765495	     -0.51702511	      1.81657332	      0.26621786	     -0.43362573	      1.68681809	      0.16381314	     -0.32938714	      1.55706285	      2.04777896	     -2.40548304	     11.54655526	      0.00000000	      0.00000000	     27.74855711	     -1.67580998	    -12.15054296	      5.53408012	    -13.26414942	     53.01928921	     51.73361052	     84.55217118	      9.16982087	     13.68506153	     18.83019993	    -13.11502946	     80.46348538	     49.77822820	     57.56433704	      0.14142830	    -11.66221818
      5.22033898	     -3.19742046	     -4.70009095	     83.90406409	      0.34215824	      0.98683014	      0.37965047	     -1.83286816	      1.48263028	      8.61969452	      1.05373128	      0.01839108	     24.36387054	     -7.81012947	      0.00000000	      4.41738541	     -1.10636186	     -1.50954699	     12.48988021	      0.21798953	     30.78466757	     -4.19780222	      0.00000000	      0.32559556	     -0.23105401	      2.14439493	      0.60466352	     -0.30730183	      2.27841962	      0.53492095	     -0.56178471	      2.27841962	      0.37212317	     -0.56178471	      1.87634557	      0.30234804	     -0.47116533	      1.74232088	      0.18604530	     -0.35790266	      1.60829620	      2.32569654	     -2.61372913	     11.92648130	      0.00000000	      0.00000000	     27.90710127	     -2.14058861	    -12.56592087	      4.92410784	    -13.26734116	     51.70285948	     51.58406380	     83.83489745	      9.37091894	     13.01307218	     18.89236093	    -12.94587563	     81.52575258	     49.58393937	     56.15187266	     -0.55560137	    -11.93829326
